<svg width="90" height="90" viewBox="0 0 90 90" fill="none" xmlns="http://www.w3.org/2000/svg">
<path d="M87.1875 8.4375V59.0625C87.1875 60.6094 85.9219 61.875 84.375 61.875H45H5.625C4.07812 61.875 2.8125 60.6094 2.8125 59.0625V8.4375C2.8125 6.89062 4.07812 5.625 5.625 5.625H45H84.375C85.9219 5.625 87.1875 6.89062 87.1875 8.4375Z" fill="#FFC34C"/>
<path d="M28.125 87.1875L45 70.3125M45 70.3125L61.875 87.1875M45 70.3125V61.875H5.625C4.06969 61.875 2.8125 60.6178 2.8125 59.0625V8.4375C2.8125 6.88219 4.06969 5.625 5.625 5.625H84.375C85.9303 5.625 87.1875 6.88219 87.1875 8.4375V59.0625C87.1875 60.6178 85.9303 61.875 84.375 61.875H53.4375M45 2.8125V5.625M28.125 28.125H61.875M28.125 39.375H42.1875" stroke="black" stroke-width="2" stroke-linecap="round" stroke-linejoin="round"/>
</svg>
