<svg width="90" height="90" viewBox="0 0 90 90" fill="none" xmlns="http://www.w3.org/2000/svg">
<path d="M87.1875 22.5V87.1875H59.0625V19.6875H84.375C87.1875 19.6875 87.1875 22.5 87.1875 22.5Z" fill="#FFE6EA"/>
<path d="M59.0625 87.1875H2.8125V5.625C2.8125 4.07812 4.07812 2.8125 5.625 2.8125H56.25C57.7969 2.8125 59.0625 4.07812 59.0625 5.625V87.1875Z" fill="#FFC44D"/>
<path d="M22.5 87.1875H39.375V70.3125H22.5V87.1875Z" fill="#668077"/>
<path d="M59.0625 78.75V5.625C59.0625 4.06969 57.8053 2.8125 56.25 2.8125H5.625C4.06969 2.8125 2.8125 4.06969 2.8125 5.625V87.1875H22.5V70.3125H39.375V87.1875H87.1875V22.5C87.1875 22.5 87.1875 19.6875 84.375 19.6875H67.5M45 16.875V22.5M73.125 33.75V39.375M73.125 50.625V56.25M30.9375 16.875V22.5M16.875 16.875V22.5M45 33.75V39.375M30.9375 33.75V39.375M16.875 33.75V39.375M45 50.625V56.25M30.9375 50.625V56.25M16.875 50.625V56.25" stroke="black" stroke-width="2" stroke-linecap="round" stroke-linejoin="round"/>
</svg>
