<svg width="15" height="16" viewBox="0 0 15 16" fill="none" xmlns="http://www.w3.org/2000/svg">
<g clip-path="url(#clip0_47_259)">
<path d="M13.125 0H1.875C1.37772 0 0.900806 0.210714 0.549175 0.585786C0.197544 0.960859 0 1.46957 0 2L0 14C0 14.5304 0.197544 15.0391 0.549175 15.4142C0.900806 15.7893 1.37772 16 1.875 16H13.125C13.6223 16 14.0992 15.7893 14.4508 15.4142C14.8025 15.0391 15 14.5304 15 14V2C15 1.46957 14.8025 0.960859 14.4508 0.585786C14.0992 0.210714 13.6223 0 13.125 0V0ZM0.9375 3.857C0.9375 3.384 1.3575 3 1.875 3H13.125C13.6425 3 14.0625 3.384 14.0625 3.857V14.143C14.0625 14.616 13.6425 15 13.125 15H1.875C1.3575 15 0.9375 14.616 0.9375 14.143V3.857Z" fill="#212529" fill-opacity="0.7"/>
<path d="M6.09375 7C6.34239 7 6.58085 6.89464 6.75666 6.70711C6.93248 6.51957 7.03125 6.26522 7.03125 6C7.03125 5.73478 6.93248 5.48043 6.75666 5.29289C6.58085 5.10536 6.34239 5 6.09375 5C5.84511 5 5.60665 5.10536 5.43084 5.29289C5.25502 5.48043 5.15625 5.73478 5.15625 6C5.15625 6.26522 5.25502 6.51957 5.43084 6.70711C5.60665 6.89464 5.84511 7 6.09375 7ZM8.90625 7C9.15489 7 9.39335 6.89464 9.56916 6.70711C9.74498 6.51957 9.84375 6.26522 9.84375 6C9.84375 5.73478 9.74498 5.48043 9.56916 5.29289C9.39335 5.10536 9.15489 5 8.90625 5C8.65761 5 8.41915 5.10536 8.24334 5.29289C8.06752 5.48043 7.96875 5.73478 7.96875 6C7.96875 6.26522 8.06752 6.51957 8.24334 6.70711C8.41915 6.89464 8.65761 7 8.90625 7ZM11.7188 7C11.9674 7 12.2058 6.89464 12.3817 6.70711C12.5575 6.51957 12.6562 6.26522 12.6562 6C12.6562 5.73478 12.5575 5.48043 12.3817 5.29289C12.2058 5.10536 11.9674 5 11.7188 5C11.4701 5 11.2317 5.10536 11.0558 5.29289C10.88 5.48043 10.7812 5.73478 10.7812 6C10.7812 6.26522 10.88 6.51957 11.0558 6.70711C11.2317 6.89464 11.4701 7 11.7188 7ZM3.28125 10C3.52989 10 3.76835 9.89464 3.94416 9.70711C4.11998 9.51957 4.21875 9.26522 4.21875 9C4.21875 8.73478 4.11998 8.48043 3.94416 8.29289C3.76835 8.10536 3.52989 8 3.28125 8C3.03261 8 2.79415 8.10536 2.61834 8.29289C2.44252 8.48043 2.34375 8.73478 2.34375 9C2.34375 9.26522 2.44252 9.51957 2.61834 9.70711C2.79415 9.89464 3.03261 10 3.28125 10ZM6.09375 10C6.34239 10 6.58085 9.89464 6.75666 9.70711C6.93248 9.51957 7.03125 9.26522 7.03125 9C7.03125 8.73478 6.93248 8.48043 6.75666 8.29289C6.58085 8.10536 6.34239 8 6.09375 8C5.84511 8 5.60665 8.10536 5.43084 8.29289C5.25502 8.48043 5.15625 8.73478 5.15625 9C5.15625 9.26522 5.25502 9.51957 5.43084 9.70711C5.60665 9.89464 5.84511 10 6.09375 10ZM8.90625 10C9.15489 10 9.39335 9.89464 9.56916 9.70711C9.74498 9.51957 9.84375 9.26522 9.84375 9C9.84375 8.73478 9.74498 8.48043 9.56916 8.29289C9.39335 8.10536 9.15489 8 8.90625 8C8.65761 8 8.41915 8.10536 8.24334 8.29289C8.06752 8.48043 7.96875 8.73478 7.96875 9C7.96875 9.26522 8.06752 9.51957 8.24334 9.70711C8.41915 9.89464 8.65761 10 8.90625 10ZM11.7188 10C11.9674 10 12.2058 9.89464 12.3817 9.70711C12.5575 9.51957 12.6562 9.26522 12.6562 9C12.6562 8.73478 12.5575 8.48043 12.3817 8.29289C12.2058 8.10536 11.9674 8 11.7188 8C11.4701 8 11.2317 8.10536 11.0558 8.29289C10.88 8.48043 10.7812 8.73478 10.7812 9C10.7812 9.26522 10.88 9.51957 11.0558 9.70711C11.2317 9.89464 11.4701 10 11.7188 10ZM3.28125 13C3.52989 13 3.76835 12.8946 3.94416 12.7071C4.11998 12.5196 4.21875 12.2652 4.21875 12C4.21875 11.7348 4.11998 11.4804 3.94416 11.2929C3.76835 11.1054 3.52989 11 3.28125 11C3.03261 11 2.79415 11.1054 2.61834 11.2929C2.44252 11.4804 2.34375 11.7348 2.34375 12C2.34375 12.2652 2.44252 12.5196 2.61834 12.7071C2.79415 12.8946 3.03261 13 3.28125 13ZM6.09375 13C6.34239 13 6.58085 12.8946 6.75666 12.7071C6.93248 12.5196 7.03125 12.2652 7.03125 12C7.03125 11.7348 6.93248 11.4804 6.75666 11.2929C6.58085 11.1054 6.34239 11 6.09375 11C5.84511 11 5.60665 11.1054 5.43084 11.2929C5.25502 11.4804 5.15625 11.7348 5.15625 12C5.15625 12.2652 5.25502 12.5196 5.43084 12.7071C5.60665 12.8946 5.84511 13 6.09375 13ZM8.90625 13C9.15489 13 9.39335 12.8946 9.56916 12.7071C9.74498 12.5196 9.84375 12.2652 9.84375 12C9.84375 11.7348 9.74498 11.4804 9.56916 11.2929C9.39335 11.1054 9.15489 11 8.90625 11C8.65761 11 8.41915 11.1054 8.24334 11.2929C8.06752 11.4804 7.96875 11.7348 7.96875 12C7.96875 12.2652 8.06752 12.5196 8.24334 12.7071C8.41915 12.8946 8.65761 13 8.90625 13Z" fill="#212529" fill-opacity="0.7"/>
</g>
<defs>
<clipPath id="clip0_47_259">
<rect width="15" height="16" fill="white"/>
</clipPath>
</defs>
</svg>
