<svg width="100" height="100" viewBox="0 0 100 100" fill="none" xmlns="http://www.w3.org/2000/svg">
<path d="M96.875 12.5V81.25C96.875 82.9688 95.4688 84.375 93.75 84.375H81.25V25C81.25 23.2812 79.8438 21.875 78.125 21.875H65.625V9.375H93.75C95.4688 9.375 96.875 10.7812 96.875 12.5Z" fill="#668077"/>
<path d="M81.25 84.375V93.75C81.25 95.4688 79.8438 96.875 78.125 96.875H21.875C20.1562 96.875 18.75 95.4688 18.75 93.75V78.125V25C18.75 23.2812 20.1562 21.875 21.875 21.875H65.625H78.125C79.8438 21.875 81.25 23.2812 81.25 25V84.375Z" fill="#FFE6EA"/>
<path d="M65.625 9.375V21.875H21.875C20.1562 21.875 18.75 23.2812 18.75 25V78.125H6.25C3.125 78.125 3.125 75 3.125 75V6.25C3.125 4.53125 4.53125 3.125 6.25 3.125H62.5C64.2188 3.125 65.625 4.53125 65.625 6.25V9.375Z" fill="#FFC34C"/>
<path d="M37.5 40.625H46.875M37.5 50H62.5M37.5 62.5H62.5M37.5 75H62.5M65.625 21.875V6.25C65.625 4.52188 64.2281 3.125 62.5 3.125H6.25C4.52188 3.125 3.125 4.52188 3.125 6.25V75C3.125 75 3.125 78.125 6.25 78.125H9.375M81.25 84.375H93.75C95.4781 84.375 96.875 82.9781 96.875 81.25V12.5C96.875 10.7719 95.4781 9.375 93.75 9.375H75M81.25 93.75C81.25 95.4781 79.8531 96.875 78.125 96.875H21.875C20.1469 96.875 18.75 95.4781 18.75 93.75V25C18.75 23.2719 20.1469 21.875 21.875 21.875H78.125C79.8531 21.875 81.25 23.2719 81.25 25V93.75Z" stroke="black" stroke-width="2" stroke-linecap="round" stroke-linejoin="round"/>
</svg>
