<svg width="50" height="50" viewBox="0 0 50 50" fill="none" xmlns="http://www.w3.org/2000/svg">
<g clip-path="url(#clip0_34_19)">
<path d="M48.4375 12.5V39.0625C48.4375 33.8906 44.2344 29.6875 39.0625 29.6875C33.8906 29.6875 29.6875 33.8906 29.6875 39.0625C29.6875 44.2344 33.8906 48.4375 39.0625 48.4375H7.8125C4.6875 48.4375 4.6875 45.3125 4.6875 45.3125V42.1875C7.8125 42.1875 7.8125 39.0625 7.8125 39.0625V12.5C7.8125 10.9375 9.375 10.9375 9.375 10.9375H46.875C48.4375 10.9375 48.4375 12.5 48.4375 12.5Z" fill="#FFC44D"/>
<path d="M39.0625 29.6875C44.2344 29.6875 48.4375 33.8906 48.4375 39.0625C48.4375 44.2344 44.2344 48.4375 39.0625 48.4375C33.8906 48.4375 29.6875 44.2344 29.6875 39.0625C29.6875 33.8906 33.8906 29.6875 39.0625 29.6875Z" fill="#FFE6EA"/>
<path d="M46.875 10.9375H9.375C9.375 10.9375 7.8125 10.9375 7.8125 12.5V39.0625C7.8125 39.0625 7.8125 42.1875 4.6875 42.1875C1.5625 42.1875 1.5625 39.0625 1.5625 39.0625V3.125C1.5625 3.125 1.5625 1.5625 3.125 1.5625H12.5L15.625 4.6875H40.625C40.625 4.6875 46.875 4.6875 46.875 10.9375Z" fill="#668077"/>
<path d="M48.4375 28.125V12.5C48.4375 12.5 48.4375 10.9375 46.875 10.9375H9.375C9.375 10.9375 7.8125 10.9375 7.8125 12.5V39.0625C7.8125 39.0625 7.8125 42.1875 4.6875 42.1875C1.5625 42.1875 1.5625 39.0625 1.5625 39.0625V3.125C1.5625 3.125 1.5625 1.5625 3.125 1.5625H12.5L15.625 4.6875H40.625M35.9375 39.0625H42.1875M39.0625 42.1875V35.9375M28.125 48.4375H6.25M48.4375 39.0625C48.4375 33.8859 44.2391 29.6875 39.0625 29.6875C33.8859 29.6875 29.6875 33.8859 29.6875 39.0625C29.6875 44.2391 33.8859 48.4375 39.0625 48.4375C44.2391 48.4375 48.4375 44.2391 48.4375 39.0625Z" stroke="black" stroke-width="2" stroke-linecap="round" stroke-linejoin="round"/>
</g>
<defs>
<clipPath id="clip0_34_19">
<rect width="50" height="50" fill="white"/>
</clipPath>
</defs>
</svg>
