<svg width="100" height="100" viewBox="0 0 100 100" fill="none" xmlns="http://www.w3.org/2000/svg">
<path d="M65.625 37.5C65.625 28.875 58.625 21.875 50 21.875C41.375 21.875 34.375 28.875 34.375 37.5C34.375 46.125 41.375 53.125 50 53.125C58.625 53.125 65.625 46.125 65.625 37.5ZM50 3.125C69 3.125 84.375 18.5 84.375 37.5C84.375 65.625 50 96.875 50 96.875C50 96.875 15.625 65.625 15.625 37.5C15.625 18.5 31 3.125 50 3.125Z" fill="#FFC34C"/>
<path d="M59.375 87.5C71.875 75 84.375 54.5219 84.375 37.5C84.375 18.5156 68.9844 3.125 50 3.125C31.0156 3.125 15.625 18.5156 15.625 37.5C15.625 65.625 50 96.875 50 96.875M15.625 96.875H84.375M65.625 37.5C65.625 28.8687 58.6313 21.875 50 21.875C41.3687 21.875 34.375 28.8687 34.375 37.5C34.375 46.1313 41.3687 53.125 50 53.125C58.6313 53.125 65.625 46.1313 65.625 37.5Z" stroke="black" stroke-width="2" stroke-linecap="round" stroke-linejoin="round"/>
</svg>
