<svg width="50" height="50" viewBox="0 0 50 50" fill="none" xmlns="http://www.w3.org/2000/svg">
<path d="M42.1875 21.875V31.25C42.1875 40.75 34.5 48.4375 25 48.4375C15.5 48.4375 7.8125 40.75 7.8125 31.25V21.875C7.8125 21 8.51562 20.3125 9.375 20.3125H17.1875H32.8125H40.625C41.5469 20.3125 42.1875 21.0469 42.1875 21.875Z" fill="#FFC44D"/>
<path d="M25 32.8125C25.8594 32.8125 26.5625 32.1094 26.5625 31.25C26.5625 30.3906 25.8594 29.6875 25 29.6875C24.1406 29.6875 23.4375 30.3906 23.4375 31.25C23.4375 32.1094 24.1406 32.8125 25 32.8125Z" fill="#668077"/>
<path d="M25 32.8125V35.9375M25 32.8125C24.1359 32.8125 23.4375 32.1141 23.4375 31.25C23.4375 30.3859 24.1359 29.6875 25 29.6875C25.8641 29.6875 26.5625 30.3859 26.5625 31.25C26.5625 32.1141 25.8641 32.8125 25 32.8125ZM28.125 20.3125H17.1875V9.375C17.1875 5.05937 20.6844 1.5625 25 1.5625C29.3156 1.5625 32.8125 5.05937 32.8125 9.375V20.3125H40.625C41.5531 20.3125 42.1875 21.0453 42.1875 21.875V31.25C42.1875 40.7422 34.4922 48.4375 25 48.4375C15.5078 48.4375 7.8125 40.7422 7.8125 31.25V21.875C7.8125 20.9953 8.52031 20.3125 9.375 20.3125H12.5" stroke="black" stroke-width="2" stroke-linecap="round" stroke-linejoin="round"/>
</svg>
