<svg width="90" height="90" viewBox="0 0 90 90" fill="none" xmlns="http://www.w3.org/2000/svg">
<path d="M67.5 87.1875H22.5H2.8125C2.8125 87.1875 4.75312 77.0063 5.625 73.125C6.21563 70.5375 8.4375 64.6875 30.9375 61.875C30.9375 61.875 33.75 70.3125 45 70.3125C56.25 70.3125 59.0625 61.875 59.0625 61.875C81.5625 64.6875 83.7844 70.3687 84.375 73.125C85.1906 77.0063 87.1875 87.1875 87.1875 87.1875H67.5Z" fill="#FFC44D"/>
<path d="M64.6875 22.5H61.875H28.125H25.3125C25.3125 11.6156 34.1156 2.8125 45 2.8125C55.8844 2.8125 64.6875 11.6156 64.6875 22.5Z" fill="#668077"/>
<path d="M61.875 22.5V30.9375C61.875 41.8219 53.4375 50.625 45 50.625C36.5625 50.625 28.125 41.8219 28.125 30.9375V22.5H61.875Z" fill="#FFE6EA"/>
<path d="M2.8125 87.1875C2.8125 87.1875 4.74469 77.0034 5.625 73.125C6.21 70.5459 8.4375 64.6875 30.9375 61.875C30.9375 61.875 33.75 70.3125 45 70.3125C56.25 70.3125 59.0625 61.875 59.0625 61.875C81.5625 64.6875 83.79 70.3716 84.375 73.125C85.2019 77.0175 87.1875 87.1875 87.1875 87.1875M28.125 30.9375C28.125 41.8106 36.5625 50.625 45 50.625C53.4375 50.625 61.875 41.8106 61.875 30.9375M22.5 84.375V87.1875M67.5 84.375V87.1875M16.875 22.5H64.6875C64.6875 11.6269 55.8731 2.8125 45 2.8125C34.1269 2.8125 25.3125 11.6269 25.3125 22.5" stroke="black" stroke-width="2" stroke-linecap="round" stroke-linejoin="round"/>
</svg>
