<svg width="50" height="50" viewBox="0 0 50 50" fill="none" xmlns="http://www.w3.org/2000/svg">
<g clip-path="url(#clip0_34_62)">
<path d="M48.4375 34.375V46.875C48.4375 47.7344 47.7344 48.4375 46.875 48.4375H40.625C39.7656 48.4375 39.0625 47.7344 39.0625 46.875V39.0625V34.375C39.0625 33.5156 39.7656 32.8125 40.625 32.8125H46.875C47.7344 32.8125 48.4375 33.5156 48.4375 34.375Z" fill="#FFE6EA"/>
<path d="M48.4375 3.125V34.375C48.4375 33.5156 47.7344 32.8125 46.875 32.8125H40.625H23.4375V21.875C23.4375 21.0156 22.7344 20.3125 21.875 20.3125H3.125C2.26562 20.3125 1.5625 21.0156 1.5625 21.875V3.125C1.5625 2.25 2.26562 1.5625 3.125 1.5625H46.875C47.7344 1.5625 48.4375 2.25 48.4375 3.125Z" fill="#668077"/>
<path d="M23.4375 32.8125H40.625C39.7656 32.8125 39.0625 33.5156 39.0625 34.375V39.0625H28.125H23.4375V32.8125Z" fill="#FFE6EA"/>
<path d="M28.125 39.0625V46.875L32.8125 48.4375H21.875C22.7344 48.4375 23.4375 47.7344 23.4375 46.875V39.0625H28.125Z" fill="#FFE6EA"/>
<path d="M23.4375 39.0625V46.875C23.4375 47.7344 22.7344 48.4375 21.875 48.4375H3.125C2.26562 48.4375 1.5625 47.7344 1.5625 46.875V21.875C1.5625 21.0156 2.26562 20.3125 3.125 20.3125H21.875C22.7344 20.3125 23.4375 21.0156 23.4375 21.875V32.8125V39.0625Z" fill="#FFC44D"/>
<path d="M1.5625 15.625V3.11719C1.5625 2.25313 2.26094 1.5625 3.125 1.5625H46.875C47.7391 1.5625 48.4375 2.25313 48.4375 3.11719V28.125M32.8125 48.4344L28.125 46.8672V39.0625H34.375M34.375 32.8125H28.125M48.4375 46.875C48.4375 47.7391 47.7391 48.4375 46.875 48.4375H40.625C39.7609 48.4375 39.0625 47.7391 39.0625 46.875V34.375C39.0625 33.5109 39.7609 32.8125 40.625 32.8125H46.875C47.7391 32.8125 48.4375 33.5109 48.4375 34.375V46.875ZM23.4375 46.875C23.4375 47.7391 22.7391 48.4375 21.875 48.4375H3.125C2.26094 48.4375 1.5625 47.7391 1.5625 46.875V21.875C1.5625 21.0109 2.26094 20.3125 3.125 20.3125H21.875C22.7391 20.3125 23.4375 21.0109 23.4375 21.875V46.875Z" stroke="black" stroke-width="2" stroke-linecap="round" stroke-linejoin="round"/>
</g>
<defs>
<clipPath id="clip0_34_62">
<rect width="50" height="50" fill="white"/>
</clipPath>
</defs>
</svg>
