<svg width="32" height="32" viewBox="0 0 32 32" fill="none" xmlns="http://www.w3.org/2000/svg">
<g clip-path="url(#clip0_15_6)">
<path d="M23.7627 20.1416C23.7627 20.1416 25.5627 27.4426 26.0827 29.4316C26.5727 31.3016 25.0727 31.2516 24.1527 30.6126C23.1227 29.8916 16.0027 24.8016 16.0027 24.8016C16.0027 24.8016 8.82273 29.9316 7.83273 30.6216C6.98273 31.2116 5.40273 31.3416 6.04273 29.4526C6.50273 27.8626 8.75273 20.1416 8.75273 20.1416C8.75273 20.1416 2.18273 15.3316 1.48273 14.7916C0.782734 14.2616 0.752734 12.7616 2.01273 12.6526C3.26273 12.5516 11.3427 11.8626 11.3427 11.8626C11.3427 11.8626 14.4727 3.19258 14.8927 2.04158C15.3027 0.671579 16.6627 0.641579 17.2127 2.02158C17.6627 3.14158 21.1727 11.8626 21.1727 11.8626C21.1727 11.8626 28.8027 12.5416 29.9527 12.6416C31.2127 12.7216 31.3127 14.2826 30.4927 14.9126C29.6827 15.5516 23.7627 20.1416 23.7627 20.1416Z" fill="#FFC44D"/>
<path fill-rule="evenodd" clip-rule="evenodd" d="M17.2162 2.02159C17.6662 3.14259 21.1742 11.8636 21.1742 11.8636C21.1742 11.8636 28.8062 12.5426 29.9552 12.6386C31.2142 12.7186 31.3132 14.2796 30.4962 14.9146C29.6812 15.5466 23.7612 20.1406 23.7612 20.1406C23.7612 20.1406 25.5602 27.4376 26.0832 29.4256C26.5732 31.2986 25.0702 31.2486 24.1562 30.6096C23.1212 29.8886 16.0012 24.7966 16.0012 24.7966C16.0012 24.7966 8.8252 29.9276 7.8372 30.6176C6.9872 31.2086 5.4002 31.3376 6.0402 29.4536C6.5052 27.8636 8.7552 20.1406 8.7552 20.1406C8.7552 20.1406 2.1792 15.3286 1.4812 14.7916C0.7792 14.2556 0.7572 12.7596 2.0092 12.6526C3.2632 12.5466 11.3432 11.8636 11.3432 11.8636C11.3432 11.8636 14.4752 3.18959 14.8962 2.04259C15.3042 0.671592 16.6632 0.640592 17.2162 2.02159Z" stroke="black" stroke-width="2" stroke-linecap="round" stroke-linejoin="round"/>
</g>
<defs>
<clipPath id="clip0_15_6">
<rect width="32" height="32" fill="white"/>
</clipPath>
</defs>
</svg>
