<svg width="90" height="90" viewBox="0 0 90 90" fill="none" xmlns="http://www.w3.org/2000/svg">
<path d="M75.9375 22.5H84.375C85.9219 22.5 87.1875 23.7656 87.1875 25.3125V84.375C87.1875 85.9219 85.9219 87.1875 84.375 87.1875H5.62502C4.66877 87.1875 3.7969 86.6813 3.29065 85.95L4.07815 85.9219L45 45L67.5 67.5V22.5H75.9375Z" fill="#FFC44D"/>
<path d="M45 45L4.07812 85.9219L3.29063 85.95C2.98125 85.5 2.8125 84.9656 2.8125 84.375V25.3125C2.8125 23.7656 4.07812 22.5 5.625 22.5H67.5V67.5L45 45Z" fill="#FFE6EA"/>
<path d="M75.9375 22.5H84.375C85.9303 22.5 87.1875 23.7572 87.1875 25.3125V84.375C87.1875 85.9303 85.9303 87.1875 84.375 87.1875H5.625C4.06969 87.1875 2.8125 85.9303 2.8125 84.375V25.3125C2.8125 23.7572 4.06969 22.5 5.625 22.5H59.0625M11.25 78.75L45 45L67.5 67.5V2.8125M67.5 2.8125L56.25 14.0625M67.5 2.8125L78.75 14.0625" stroke="black" stroke-width="2" stroke-linecap="round" stroke-linejoin="round"/>
</svg>
