<svg width="50" height="50" viewBox="0 0 50 50" fill="none" xmlns="http://www.w3.org/2000/svg">
<g clip-path="url(#clip0_34_28)">
<path d="M48.4375 12.5V46.875C48.4375 47.7344 47.7344 48.4375 46.875 48.4375H40.625V10.9375H46.875C47.7344 10.9375 48.4375 11.6406 48.4375 12.5ZM34.375 10.9375V48.4375H28.125V20.3125H21.875V48.4375H15.625V29.6875H9.375V48.4375H3.125C2.26562 48.4375 1.5625 47.7344 1.5625 46.875V12.5C1.5625 11.6406 2.26562 10.9375 3.125 10.9375H34.375Z" fill="#FFE6EA"/>
<path d="M40.625 10.9375V48.4375H34.375V10.9375V1.5625H40.625V10.9375Z" fill="#FFC44D"/>
<path d="M21.875 48.4375H28.125V20.3125H21.875V48.4375Z" fill="#668077"/>
<path d="M9.375 48.4375H15.625V29.6875H9.375V48.4375Z" fill="#668077"/>
<path d="M45.3125 10.9375H46.875C47.7391 10.9375 48.4375 11.6359 48.4375 12.5V46.875C48.4375 47.7391 47.7391 48.4375 46.875 48.4375H3.125C2.26094 48.4375 1.5625 47.7391 1.5625 46.875V12.5C1.5625 11.6359 2.26094 10.9375 3.125 10.9375H29.6875M9.375 43.75V29.6875H15.625V43.75M21.875 43.75V20.3125H28.125V43.75M34.375 43.75V1.5625H40.625V43.75" stroke="black" stroke-width="2" stroke-linecap="round" stroke-linejoin="round"/>
</g>
<defs>
<clipPath id="clip0_34_28">
<rect width="50" height="50" fill="white"/>
</clipPath>
</defs>
</svg>
