<svg width="50" height="50" viewBox="0 0 50 50" fill="none" xmlns="http://www.w3.org/2000/svg">
<g clip-path="url(#clip0_34_54)">
<path d="M29.6875 16.063C30.9062 20.313 35.9375 20.313 35.9375 20.313H45.3125C48.6719 20.313 48.4375 23.438 48.4375 23.438L42.9688 45.313C42.2031 48.3895 39.0625 48.438 39.0625 48.438H29.6875C25 48.438 23.4375 45.313 18.75 45.313H14.0625V20.313C20.3125 20.313 20.3125 14.063 20.3125 14.063V4.68799C20.3125 2.96924 21.7188 1.56299 23.4375 1.56299C26.5625 1.56299 29.6875 4.68799 29.6875 7.81299V16.063Z" fill="#FFE6EA"/>
<path d="M14.0625 45.3125V48.4375H1.5625V20.3125H14.0625V45.3125Z" fill="#668077"/>
<path d="M29.6875 14.0625C29.6875 20.3125 35.9375 20.3125 35.9375 20.3125H45.3125C48.6656 20.3125 48.4375 23.4375 48.4375 23.4375L42.9688 45.3125C42.1984 48.3938 39.0625 48.4375 39.0625 48.4375H29.6906C25.0031 48.4375 23.4375 45.3125 18.75 45.3125M14.0625 25V48.4375H1.5625V20.3125H14.0625C20.3125 20.3125 20.3125 14.0625 20.3125 14.0625V4.6875C20.3125 2.9625 21.7125 1.5625 23.4375 1.5625C26.5625 1.5625 29.6875 4.6875 29.6875 7.8125V23.4375C29.6875 23.4375 29.6906 29.6875 23.4406 29.6875" stroke="black" stroke-width="2" stroke-linecap="round" stroke-linejoin="round"/>
</g>
<defs>
<clipPath id="clip0_34_54">
<rect width="50" height="50" fill="white"/>
</clipPath>
</defs>
</svg>
