<svg width="50" height="50" viewBox="0 0 50 50" fill="none" xmlns="http://www.w3.org/2000/svg">
<g clip-path="url(#clip0_34_38)">
<path d="M42.1875 1.5625C45.6406 1.5625 48.4375 4.35938 48.4375 7.8125C48.4375 11.2656 45.6406 14.0625 42.1875 14.0625C42.1562 14.0625 42.125 14.0469 42.0938 14.0469C41.9219 13.7656 41.7344 13.4844 41.5312 13.2031C41.4375 13.0781 41.3438 12.9531 41.2656 12.8438C40.9062 12.3594 40.5156 11.8906 40.1094 11.4375C40.0781 11.4062 40.0469 11.375 40.0312 11.3438C39.5938 10.8594 39.1406 10.4062 38.6562 9.96875C38.625 9.95312 38.5938 9.92188 38.5625 9.89062C38.1094 9.48438 37.6406 9.09375 37.1562 8.73438C37.0469 8.65625 36.9219 8.5625 36.7969 8.46875C36.5156 8.26562 36.2344 8.07812 35.9531 7.90625C35.9531 7.875 35.9375 7.84375 35.9375 7.8125C35.9375 4.35938 38.7344 1.5625 42.1875 1.5625ZM14.0625 7.8125C14.0625 7.84375 14.0469 7.875 14.0469 7.90625C13.7656 8.07812 13.4844 8.26562 13.2031 8.46875C13.0781 8.5625 12.9531 8.65625 12.8438 8.73438C12.3594 9.09375 11.8906 9.48438 11.4375 9.89062C11.4062 9.92188 11.375 9.95312 11.3438 9.96875C10.8594 10.4062 10.4062 10.8594 9.96875 11.3438C9.95312 11.375 9.92188 11.4062 9.89062 11.4375C9.48438 11.8906 9.09375 12.3594 8.73438 12.8438C8.65625 12.9531 8.5625 13.0781 8.46875 13.2031C8.26562 13.4844 8.07812 13.7656 7.90625 14.0469C7.875 14.0469 7.84375 14.0625 7.8125 14.0625C4.35938 14.0625 1.5625 11.2656 1.5625 7.8125C1.5625 4.35938 4.35938 1.5625 7.8125 1.5625C11.2656 1.5625 14.0625 4.35938 14.0625 7.8125Z" fill="#668077"/>
<path d="M42.0945 14.0472C44.1257 17.2035 45.3132 20.9691 45.3132 25.0004C45.3132 36.2176 36.2179 45.3129 25.0007 45.3129C13.782 45.3129 4.68823 36.2176 4.68823 25.0004C4.68823 20.9691 5.87417 17.2035 7.90542 14.0472C8.09292 13.7644 8.28042 13.4847 8.46792 13.2035C8.56323 13.0785 8.65698 12.9535 8.73354 12.8426C9.11011 12.3597 9.50073 11.891 9.89136 11.4379C9.92104 11.4066 9.95386 11.3754 9.96792 11.3441C10.421 10.8754 10.8757 10.4222 11.3429 9.96912C11.3757 9.95349 11.4054 9.92068 11.4382 9.89099C11.8914 9.50037 12.3601 9.10974 12.8429 8.73474C12.9539 8.65662 13.0789 8.56287 13.2039 8.46912C13.4835 8.28162 13.7648 8.09255 14.0476 7.90505C17.2023 5.87537 20.9679 4.68787 25.0007 4.68787C29.032 4.68787 32.7976 5.87537 35.9523 7.90505C36.2351 8.09255 36.5164 8.28162 36.796 8.46912C36.921 8.56287 37.0476 8.65662 37.157 8.73474C37.6398 9.10974 38.1085 9.50037 38.5617 9.89099C38.5945 9.92068 38.6242 9.95349 38.657 9.96912C39.1257 10.4222 39.5789 10.8754 40.032 11.3441C40.046 11.3754 40.0789 11.4066 40.1085 11.4379C40.4992 11.891 40.8898 12.3597 41.2664 12.8426C41.3445 12.9535 41.4367 13.0785 41.532 13.2035C41.7195 13.4847 41.907 13.7644 42.0945 14.0472Z" fill="#FFC44D"/>
<path d="M24.9999 4.68753C36.2187 4.68753 45.3124 13.7813 45.3124 25C45.3124 36.2188 36.2187 45.3125 24.9999 45.3125C13.7812 45.3125 4.68741 36.2188 4.68741 25C4.68741 13.7813 13.7812 4.68753 24.9999 4.68753ZM24.9999 4.68753V1.56253M14.5491 42.418L10.9366 48.4383M46.5133 12.3108C47.6962 11.1718 48.4368 9.58269 48.4368 7.81238C48.4368 4.35925 45.6399 1.56238 42.1868 1.56238C40.418 1.56238 38.8274 2.30457 37.6899 3.48738M12.3107 3.4866C11.1716 2.30378 9.58257 1.56316 7.81226 1.56316C4.35913 1.56316 1.56226 4.36003 1.56226 7.81316C1.56226 9.58191 2.30444 11.1725 3.48726 12.31M34.3749 18.75L21.8749 31.25L15.6249 25M39.0624 48.4375L35.4515 42.4188" stroke="black" stroke-width="2" stroke-linecap="round" stroke-linejoin="round"/>
</g>
<defs>
<clipPath id="clip0_34_38">
<rect width="50" height="50" fill="white"/>
</clipPath>
</defs>
</svg>
